<svg width="34" height="45" viewBox="0 0 34 45" fill="none" xmlns="http://www.w3.org/2000/svg">
<g id="Color=Gold">
<rect id="Rectangle" x="1.30234" y="42.9408" width="41.6" height="30.6" rx="3.3" transform="rotate(-89.1913 1.30234 42.9408)" fill="url(#paint0_linear_1979_3766)" stroke="#595959" stroke-width="1.4"/>
<path id="Union" fill-rule="evenodd" clip-rule="evenodd" d="M8.00537 16.1887C5.11829 17.6176 2.835 19.8942 1.93407 21.4002C1.87593 21.4998 1.78154 21.5717 1.67166 21.6001C1.56178 21.6285 1.44541 21.6111 1.34816 21.5516C1.2509 21.4921 1.18073 21.3955 1.15307 21.2831C1.12541 21.1706 1.14254 21.0514 1.20068 20.9518C2.3681 18.9788 5.01523 16.7032 7.61647 15.4136C7.66637 15.3823 7.72235 15.3627 7.78046 15.356C7.83857 15.3493 7.8974 15.3558 7.95279 15.3749C8.00819 15.394 8.0588 15.4254 8.10107 15.4667C8.14333 15.5081 8.17622 15.5584 8.19741 15.6142C8.22775 15.6737 8.24329 15.74 8.24267 15.8072C8.24162 15.8871 8.21887 15.965 8.17695 16.0324C8.13504 16.0998 8.07562 16.1539 8.00537 16.1887ZM21.5337 29.6841C25.5078 29.7116 30.2991 25.9516 31.8675 23.3374C31.8941 23.2869 31.9308 23.2427 31.9753 23.2077C32.0197 23.1726 32.0708 23.1475 32.1253 23.134C32.1798 23.1205 32.2364 23.1189 32.2915 23.1292C32.3467 23.1396 32.399 23.1617 32.4453 23.1941C32.5077 23.2336 32.5591 23.2889 32.5946 23.3546C32.63 23.4204 32.6484 23.4943 32.6479 23.5695C32.647 23.6461 32.6252 23.721 32.5849 23.7856C30.9261 26.5745 26.1385 30.355 21.8975 30.5408L21.7146 43.4988C21.7029 43.606 21.6526 43.7048 21.5736 43.7761C21.4946 43.8474 21.3926 43.8861 21.2873 43.8846C21.182 43.8831 21.0811 43.8416 21.0042 43.7681C20.9272 43.6946 20.8798 43.5943 20.8711 43.4869L21.0551 30.447C18.2708 29.5909 15.3075 29.549 12.5001 30.3263L12.316 43.3662C12.3144 43.4801 12.2686 43.5888 12.1888 43.6683C12.1089 43.7478 12.0015 43.7916 11.8902 43.79C11.7789 43.7884 11.6727 43.7416 11.5951 43.6599C11.5176 43.5782 11.4749 43.4683 11.4765 43.3543L11.6594 30.3963C7.4093 30.0906 2.74655 26.1604 1.16694 23.3421C1.11164 23.2409 1.09788 23.1213 1.1287 23.0096C1.15952 22.898 1.23239 22.8034 1.33129 22.7467C1.43018 22.69 1.54699 22.6759 1.65603 22.7074C1.76507 22.7388 1.85739 22.8134 1.9127 22.9146C3.38662 25.5717 8.07388 29.4655 12.0512 29.5503C15.159 28.6565 18.4524 28.703 21.5337 29.6841ZM21.4658 1.35071L21.2814 14.4152C18.474 15.1924 15.5107 15.1506 12.7263 14.2944L12.9107 1.22995C12.9124 1.11598 12.8697 1.00604 12.7921 0.92434C12.7145 0.842636 12.6084 0.795849 12.4971 0.794278C12.3857 0.792706 12.2783 0.836479 12.1985 0.915961C12.1186 0.995442 12.0728 1.10413 12.0712 1.2181L11.8821 14.6141C11.8819 14.7073 11.9112 14.798 11.9657 14.8726C12.0201 14.9472 12.0968 15.0017 12.1842 15.0277C15.2878 16.0233 18.6082 16.0702 21.7387 15.1626C25.712 15.2473 30.3953 19.141 31.8892 21.7985C31.9129 21.851 31.9473 21.8978 31.99 21.9358C32.0327 21.9737 32.0829 22.0019 32.1371 22.0186C32.1912 22.0352 32.2483 22.0399 32.3044 22.0322C32.3605 22.0246 32.4144 22.0049 32.4625 21.9744C32.526 21.9367 32.5789 21.8829 32.6162 21.8182C32.6536 21.7534 32.674 21.68 32.6756 21.6049C32.6769 21.5283 32.6572 21.4528 32.6187 21.3871C31.0591 18.5691 26.3604 14.6383 22.1263 14.333L22.3093 1.36261C22.3006 1.2552 22.2532 1.15498 22.1763 1.08146C22.0993 1.00794 21.9984 0.966389 21.8931 0.964903C21.7878 0.963417 21.6858 1.0021 21.6068 1.07342C21.5278 1.14474 21.4775 1.24359 21.4658 1.35071ZM3.46736 22.6068C3.38656 22.4791 3.34458 22.3297 3.34673 22.1775C3.34961 21.9734 3.43155 21.7788 3.57454 21.6365C3.71752 21.4942 3.90983 21.4159 4.10916 21.4187C4.2578 21.4208 4.40247 21.4679 4.52488 21.5542C4.64728 21.6405 4.74191 21.7621 4.79681 21.9035C4.85171 22.0449 4.86441 22.1998 4.8333 22.3486C4.8022 22.4975 4.72868 22.6336 4.62205 22.7397C4.51543 22.8458 4.38048 22.9172 4.23427 22.9449C4.08806 22.9725 3.93716 22.9551 3.80065 22.895C3.66414 22.8348 3.54815 22.7345 3.46736 22.6068Z" fill="#666666"/>
</g>
<defs>
<linearGradient id="paint0_linear_1979_3766" x1="-3.50271" y1="43.6309" x2="46.3632" y2="76.7018" gradientUnits="userSpaceOnUse">
<stop stop-color="#FBC926"/>
<stop offset="0.212761" stop-color="#FFFBCC"/>
<stop offset="0.548384" stop-color="#C3922E" stop-opacity="0.8"/>
<stop offset="0.914316" stop-color="#EED688"/>
<stop offset="1" stop-color="#FFFBCC"/>
</linearGradient>
</defs>
</svg>
