<svg width="181" height="30" viewBox="0 0 181 30" fill="none" xmlns="http://www.w3.org/2000/svg">
<path d="M12.6804 4.24C10.1204 4.24 8.18703 4.82667 6.88037 6C5.60037 7.14667 4.96037 8.82667 4.96037 11.04V14.24H17.7604V17.68H4.96037V29H0.960366V11C0.960366 7.77333 1.9737 5.25333 4.00037 3.44C6.0537 1.6 8.90703 0.68 12.5604 0.68C14.1604 0.68 15.6537 0.866666 17.0404 1.24C18.427 1.58667 19.627 2.10666 20.6404 2.8L19.3204 6.12C17.5337 4.86667 15.3204 4.24 12.6804 4.24ZM42.0872 7.8V29H38.4072V25.64C37.5539 26.8133 36.4739 27.7067 35.1672 28.32C33.8606 28.9333 32.4206 29.24 30.8472 29.24C28.7939 29.24 26.9539 28.7867 25.3272 27.88C23.7006 26.9733 22.4206 25.7067 21.4872 24.08C20.5806 22.4267 20.1272 20.5333 20.1272 18.4C20.1272 16.2667 20.5806 14.3867 21.4872 12.76C22.4206 11.1333 23.7006 9.86667 25.3272 8.96C26.9539 8.05333 28.7939 7.6 30.8472 7.6C32.3672 7.6 33.7672 7.89333 35.0472 8.48C36.3272 9.04 37.3939 9.88 38.2472 11V7.8H42.0872ZM31.1672 25.88C32.5006 25.88 33.7139 25.5733 34.8072 24.96C35.9006 24.32 36.7539 23.44 37.3672 22.32C37.9806 21.1733 38.2872 19.8667 38.2872 18.4C38.2872 16.9333 37.9806 15.64 37.3672 14.52C36.7539 13.3733 35.9006 12.4933 34.8072 11.88C33.7139 11.2667 32.5006 10.96 31.1672 10.96C29.8072 10.96 28.5806 11.2667 27.4872 11.88C26.4206 12.4933 25.5672 13.3733 24.9272 14.52C24.3139 15.64 24.0072 16.9333 24.0072 18.4C24.0072 19.8667 24.3139 21.1733 24.9272 22.32C25.5672 23.44 26.4206 24.32 27.4872 24.96C28.5806 25.5733 29.8072 25.88 31.1672 25.88ZM74.2729 7.6C76.9395 7.6 79.0462 8.37333 80.5929 9.92C82.1662 11.4667 82.9529 13.76 82.9529 16.8V29H79.1129V17.24C79.1129 15.1867 78.6329 13.64 77.6729 12.6C76.7395 11.56 75.3929 11.04 73.6329 11.04C71.6862 11.04 70.1395 11.6533 68.9929 12.88C67.8462 14.08 67.2729 15.8133 67.2729 18.08V29H63.4329V17.24C63.4329 15.1867 62.9529 13.64 61.9929 12.6C61.0595 11.56 59.7129 11.04 57.9529 11.04C56.0062 11.04 54.4595 11.6533 53.3129 12.88C52.1662 14.08 51.5929 15.8133 51.5929 18.08V29H47.7529V7.8H51.4329V10.96C52.2062 9.86667 53.2195 9.04 54.4729 8.48C55.7262 7.89333 57.1529 7.6 58.7529 7.6C60.4062 7.6 61.8729 7.93333 63.1529 8.6C64.4329 9.26667 65.4195 10.24 66.1129 11.52C66.9129 10.2933 68.0195 9.33333 69.4329 8.64C70.8729 7.94667 72.4862 7.6 74.2729 7.6ZM107.458 7.04C104.738 5.49333 101.832 4.57333 98.7385 4.28V29H94.7785V4.28C91.6585 4.57333 88.7385 5.49333 86.0185 7.04L84.6185 3.88C88.1918 1.74667 92.2185 0.68 96.6985 0.68C101.232 0.68 105.285 1.74667 108.858 3.88L107.458 7.04ZM114.014 11.36C114.681 10.1333 115.667 9.2 116.974 8.56C118.281 7.92 119.867 7.6 121.734 7.6V11.32C121.521 11.2933 121.227 11.28 120.854 11.28C118.774 11.28 117.134 11.9067 115.934 13.16C114.761 14.3867 114.174 16.1467 114.174 18.44V29H110.334V7.8H114.014V11.36ZM144.9 7.8V29H141.26V25.8C140.487 26.8933 139.46 27.7467 138.18 28.36C136.927 28.9467 135.554 29.24 134.06 29.24C131.234 29.24 129.007 28.4667 127.38 26.92C125.754 25.3467 124.94 23.04 124.94 20V7.8H128.78V19.56C128.78 21.6133 129.274 23.1733 130.26 24.24C131.247 25.28 132.66 25.8 134.5 25.8C136.527 25.8 138.127 25.1867 139.3 23.96C140.474 22.7333 141.06 21 141.06 18.76V7.8H144.9ZM156.691 29.24C154.957 29.24 153.291 29.0133 151.691 28.56C150.091 28.08 148.837 27.48 147.931 26.76L149.531 23.72C150.464 24.3867 151.597 24.92 152.931 25.32C154.264 25.72 155.611 25.92 156.971 25.92C160.331 25.92 162.011 24.96 162.011 23.04C162.011 22.4 161.784 21.8933 161.331 21.52C160.877 21.1467 160.304 20.88 159.611 20.72C158.944 20.5333 157.984 20.3333 156.731 20.12C155.024 19.8533 153.624 19.5467 152.531 19.2C151.464 18.8533 150.544 18.2667 149.771 17.44C148.997 16.6133 148.611 15.4533 148.611 13.96C148.611 12.04 149.411 10.5067 151.011 9.36C152.611 8.18667 154.757 7.6 157.451 7.6C158.864 7.6 160.277 7.77333 161.691 8.12C163.104 8.46667 164.264 8.93333 165.171 9.52L163.531 12.56C161.797 11.44 159.757 10.88 157.411 10.88C155.784 10.88 154.544 11.1467 153.691 11.68C152.837 12.2133 152.411 12.92 152.411 13.8C152.411 14.4933 152.651 15.04 153.131 15.44C153.611 15.84 154.197 16.1333 154.891 16.32C155.611 16.5067 156.611 16.72 157.891 16.96C159.597 17.2533 160.971 17.5733 162.011 17.92C163.077 18.24 163.984 18.8 164.731 19.6C165.477 20.4 165.851 21.52 165.851 22.96C165.851 24.88 165.024 26.4133 163.371 27.56C161.744 28.68 159.517 29.24 156.691 29.24ZM180.21 27.76C179.65 28.24 178.956 28.6133 178.13 28.88C177.303 29.12 176.45 29.24 175.57 29.24C173.436 29.24 171.783 28.6667 170.61 27.52C169.436 26.3733 168.85 24.7333 168.85 22.6V3.16H172.69V7.8H178.77V10.96H172.69V22.44C172.69 23.5867 172.97 24.4667 173.53 25.08C174.116 25.6933 174.943 26 176.01 26C177.183 26 178.183 25.6667 179.01 25L180.21 27.76Z" fill="#4567F7"/>
</svg>
