<svg width="49" height="49" viewBox="0 0 49 49" fill="none" xmlns="http://www.w3.org/2000/svg">
<g id="Group 1321315020">
<path id="Subtract" fill-rule="evenodd" clip-rule="evenodd" d="M42.3538 30.4845C46.3954 27.3766 49.0002 22.4925 49.0002 17C49.0002 7.61116 41.389 0 32.0002 0C26.6179 0 21.8198 2.50128 18.7049 6.40485C19.0654 6.48497 19.4216 6.57655 19.7731 6.67918C22.7081 3.20576 27.0964 1 31.9998 1C40.8364 1 47.9998 8.16344 47.9998 17C47.9998 22.0434 45.6663 26.5419 42.0201 29.4745C42.1421 29.8061 42.2535 30.143 42.3538 30.4845Z" fill="#4567F7"/>
<path id="Subtract_2" fill-rule="evenodd" clip-rule="evenodd" d="M31.6789 19.695C36.1301 21.0542 39.7571 24.3018 41.6262 28.5042C44.9111 25.7526 47 21.6202 47 17C47 8.71573 40.2843 2 32 2C27.5494 2 23.5516 3.93827 20.8045 7.01673C26.3304 9.02398 30.5205 13.8153 31.6789 19.695Z" fill="#4567F7"/>
<path id="Subtract_3" fill-rule="evenodd" clip-rule="evenodd" d="M11.1961 37.5135C4.75378 35.8297 -0.000183105 29.97 -0.000183105 23C-0.000183105 14.7157 6.71555 8 14.9998 8C21.9699 8 27.8296 12.754 29.5133 19.1963C29.1589 19.1404 28.8006 19.0961 28.4389 19.0638C26.7383 13.2481 21.3652 9 14.9998 9C7.26783 9 0.999817 15.268 0.999817 23C0.999817 29.3654 5.2479 34.7385 11.0637 36.4391C11.0959 36.8008 11.1402 37.1591 11.1961 37.5135Z" fill="#8BC34A"/>
<path id="Subtract_4" fill-rule="evenodd" clip-rule="evenodd" d="M27.3742 19.0043C27.2498 19.0014 27.125 19 26.9998 19C18.1633 19 10.9998 26.1634 10.9998 35C10.9998 35.1251 11.0013 35.2499 11.0041 35.3744C5.77936 33.6886 1.99982 28.7857 1.99982 23C1.99982 15.8203 7.82012 10 14.9998 10C20.7855 10 25.6884 13.7795 27.3742 19.0043Z" fill="#8BC34A"/>
<path id="Subtract_5" fill-rule="evenodd" clip-rule="evenodd" d="M26.9998 49C34.7318 49 40.9998 42.732 40.9998 35C40.9998 27.268 34.7318 21 26.9998 21C19.2678 21 12.9998 27.268 12.9998 35C12.9998 42.732 19.2678 49 26.9998 49ZM26.9998 48C34.1795 48 39.9998 42.1797 39.9998 35C39.9998 27.8203 34.1795 22 26.9998 22C19.8201 22 13.9998 27.8203 13.9998 35C13.9998 42.1797 19.8201 48 26.9998 48Z" fill="#8BC34A"/>
<path id="Subtract_6" fill-rule="evenodd" clip-rule="evenodd" d="M26.9998 49C34.7318 49 40.9998 42.732 40.9998 35C40.9998 27.268 34.7318 21 26.9998 21C19.2678 21 12.9998 27.268 12.9998 35C12.9998 42.732 19.2678 49 26.9998 49ZM26.9998 48C34.1795 48 39.9998 42.1797 39.9998 35C39.9998 27.8203 34.1795 22 26.9998 22C19.8201 22 13.9998 27.8203 13.9998 35C13.9998 42.1797 19.8201 48 26.9998 48Z" fill="#4567F7"/>
<circle id="Ellipse 370" cx="26.9998" cy="35" r="12" fill="#4567F7"/>
</g>
</svg>
