<svg width="49" height="50" viewBox="0 0 49 50" fill="none" xmlns="http://www.w3.org/2000/svg">
<g id="Group 1321315020">
<path id="Subtract" fill-rule="evenodd" clip-rule="evenodd" d="M42.354 30.9845C46.3956 27.8766 49.0004 22.9925 49.0004 17.5C49.0004 8.11116 41.3892 0.5 32.0004 0.5C26.6181 0.5 21.82 3.00128 18.7051 6.90485C19.0656 6.98497 19.4218 7.07655 19.7733 7.17918C22.7083 3.70576 27.0966 1.5 32 1.5C40.8366 1.5 48 8.66344 48 17.5C48 22.5434 45.6665 27.0419 42.0202 29.9745C42.1423 30.3061 42.2537 30.643 42.354 30.9845Z" fill="#4567F7"/>
<path id="Subtract_2" fill-rule="evenodd" clip-rule="evenodd" d="M31.6791 20.195C36.1303 21.5542 39.7573 24.8018 41.6264 29.0042C44.9113 26.2526 47.0002 22.1202 47.0002 17.5C47.0002 9.21573 40.2844 2.5 32.0002 2.5C27.5496 2.5 23.5517 4.43827 20.8047 7.51673C26.3306 9.52398 30.5206 14.3153 31.6791 20.195Z" fill="#4567F7"/>
<path id="Subtract_3" fill-rule="evenodd" clip-rule="evenodd" d="M11.1963 38.0135C4.75396 36.3297 0 30.47 0 23.5C0 15.2157 6.71573 8.5 15 8.5C21.97 8.5 27.8297 13.254 29.5135 19.6963C29.1591 19.6404 28.8008 19.5961 28.4391 19.5638C26.7385 13.7481 21.3654 9.5 15 9.5C7.26801 9.5 1 15.768 1 23.5C1 29.8654 5.24808 35.2385 11.0638 36.9391C11.0961 37.3008 11.1404 37.6591 11.1963 38.0135Z" fill="#8BC34A"/>
<path id="Subtract_4" fill-rule="evenodd" clip-rule="evenodd" d="M27.3744 19.5043C27.2499 19.5014 27.1251 19.5 27 19.5C18.1634 19.5 11 26.6634 11 35.5C11 35.6251 11.0014 35.7499 11.0043 35.8744C5.77954 34.1886 2 29.2857 2 23.5C2 16.3203 7.8203 10.5 15 10.5C20.7857 10.5 25.6886 14.2795 27.3744 19.5043Z" fill="#8BC34A"/>
<path id="Subtract_5" fill-rule="evenodd" clip-rule="evenodd" d="M27 49.5C34.732 49.5 41 43.232 41 35.5C41 27.768 34.732 21.5 27 21.5C19.268 21.5 13 27.768 13 35.5C13 43.232 19.268 49.5 27 49.5ZM27 48.5C34.1797 48.5 40 42.6797 40 35.5C40 28.3203 34.1797 22.5 27 22.5C19.8203 22.5 14 28.3203 14 35.5C14 42.6797 19.8203 48.5 27 48.5Z" fill="#8BC34A"/>
<path id="Subtract_6" fill-rule="evenodd" clip-rule="evenodd" d="M27 49.5C34.732 49.5 41 43.232 41 35.5C41 27.768 34.732 21.5 27 21.5C19.268 21.5 13 27.768 13 35.5C13 43.232 19.268 49.5 27 49.5ZM27 48.5C34.1797 48.5 40 42.6797 40 35.5C40 28.3203 34.1797 22.5 27 22.5C19.8203 22.5 14 28.3203 14 35.5C14 42.6797 19.8203 48.5 27 48.5Z" fill="#4567F7"/>
<circle id="Ellipse 370" cx="27" cy="35.5" r="12" fill="#4567F7"/>
</g>
</svg>
