<svg width="22" height="35" viewBox="0 0 22 35" fill="none" xmlns="http://www.w3.org/2000/svg">
<g id="System=MC">
<path id="Vector" d="M3.13447 12.2213L3.06641 22.3369L19.574 22.448L19.6421 12.3324L3.13447 12.2213Z" fill="#FF5F00"/>
<path id="Vector_2" d="M11.3295 21.3504C9.73993 21.3409 8.17335 20.9697 6.74832 20.2649C5.32328 19.56 4.07711 18.5399 3.10412 17.2819C1.87661 18.8237 1.10725 20.68 0.883976 22.6387C0.660704 24.5974 0.992528 26.5795 1.84152 28.3584C2.69052 30.1373 4.02243 31.6412 5.68504 32.6983C7.34764 33.7554 9.27386 34.323 11.2435 34.3363C13.2132 34.3495 15.1469 33.8079 16.8236 32.7733C18.5003 31.7386 19.8523 30.2528 20.7252 28.4855C21.598 26.7182 21.9565 24.7407 21.7596 22.7792C21.5627 20.8177 20.8184 18.9511 19.6117 17.393C18.6216 18.6382 17.3614 19.6416 15.9264 20.3273C14.4915 21.0129 12.9195 21.3628 11.3295 21.3504Z" fill="#EB001B"/>
<path id="Vector_3" d="M17.969 1.38438L17.6308 1.3821L17.6318 1.23618L17.5618 1.2357L17.5594 1.58301L17.6294 1.58348L17.6304 1.44631L17.9686 1.44858L17.969 1.38438ZM17.9736 0.710202L17.5653 0.707455L17.5646 0.812522L17.8554 0.937061L17.563 1.05768L17.5623 1.16274L17.9705 1.16549L17.971 1.08961L17.6619 1.08753L17.9281 0.975491L17.9286 0.896692L17.664 0.781085L17.9731 0.783165L17.9736 0.710202Z" fill="#F79E1B"/>
<path id="Vector_4" d="M11.4701 0.336882C13.4399 0.350183 15.3663 0.917924 17.0289 1.9752C18.6916 3.03248 20.0235 4.53664 20.8724 6.31575C21.7212 8.09485 22.0528 10.0771 21.8293 12.0359C21.6057 13.9948 20.836 15.8511 19.6081 17.3928C18.6342 16.1352 17.3877 15.1154 15.9626 14.4104C14.5375 13.7053 12.971 13.3334 11.3813 13.3227C9.79158 13.312 8.22022 13.6628 6.78575 14.3486C5.35127 15.0344 4.09115 16.0374 3.10045 17.2817C1.89341 15.7236 1.14874 13.8571 0.951542 11.8954C0.754349 9.93379 1.1126 7.95617 1.98533 6.18866C2.85807 4.42114 4.21008 2.93504 5.88681 1.90023C7.56355 0.865419 9.49736 0.323653 11.4672 0.336863L11.4701 0.336882Z" fill="#FCCD43"/>
</g>
</svg>
