<svg width="35" height="104" viewBox="0 0 35 104" fill="none" xmlns="http://www.w3.org/2000/svg">
<path id="Vector" d="M1.18348 64.2003L33.9349 78.2058L33.8393 87.0517L7.51084 93.4183C6.89044 93.4742 6.29557 93.6889 5.78493 94.0413C5.27429 94.3936 4.86553 94.8714 4.59899 95.4274C3.30241 98.0556 2.33272 100.829 1.71107 103.688L0.758618 103.484L0.913227 89.1882C0.913109 88.2519 1.25634 87.3473 1.87942 86.6418C2.50251 85.9362 3.3633 85.4775 4.30257 85.3503L23.38 81.9662L1.08809 73.0203L1.18348 64.2003ZM23.7897 29.5737C15.1073 29.4798 14.5083 41.3295 10.5864 41.2096C9.40953 41.1969 8.16653 40.0469 7.87896 37.6157C7.62765 34.7691 8.16487 31.9088 9.43313 29.341L2.4665 27.7933C1.47211 30.3137 0.938421 32.9885 0.890226 35.6933C0.800421 43.9968 5.20857 49.9467 11.6158 50.016C16.3493 50.0672 19.0227 45.9245 20.6392 42.7648C22.2558 39.6052 23.3017 38.4154 24.7792 38.4443C26.989 38.4682 27.9287 41.0614 27.9415 43.5025C27.9791 46.5116 27.2309 49.4792 25.769 52.1192L32.9581 53.6564C34.16 50.7063 34.7843 47.5576 34.7978 44.3774C34.8931 35.5573 30.5491 29.7243 23.7107 29.6245L23.7897 29.5737ZM34.6835 7.78737L34.7673 0.0391623L1.80792 6.46318L1.73027 13.6432C1.7351 14.3979 1.96301 15.1348 2.386 15.7634C2.80899 16.3921 3.40865 16.8851 4.11133 17.1819L34.4544 30.1799L34.5495 21.3856L29.6519 19.5762L29.7685 8.79326L34.6835 7.78737ZM22.9311 17.0625L10.6353 12.4996L23.007 10.0504L22.9311 17.0625ZM1.31337 52.1905L34.1373 59.4939L34.0467 67.8749L1.22259 60.5844L1.31337 52.1905Z" fill="#DDE8EE"/>
</svg>
