<svg width="48" height="48" viewBox="0 0 48 48" fill="none" xmlns="http://www.w3.org/2000/svg">
<g id="vuesax/bulk/3dcube">
<g id="3dcube">
<path id="Vector" d="M38.6604 11.3596L26.1204 4.59957C24.8004 3.87957 23.2003 3.87957 21.8804 4.59957L9.34035 11.3596C8.42035 11.8596 7.86035 12.8196 7.86035 13.9196C7.86035 14.9996 8.42035 15.9796 9.34035 16.4796L21.8804 23.2396C22.5403 23.5996 23.2804 23.7796 24.0004 23.7796C24.7204 23.7796 25.4604 23.5996 26.1204 23.2396L38.6604 16.4796C39.5804 15.9796 40.1404 15.0196 40.1404 13.9196C40.1404 12.8196 39.5804 11.8596 38.6604 11.3596Z" fill="#4567F7"/>
<path id="Vector_2" opacity="0.4" d="M19.82 25.58L8.14 19.74C7.24 19.3 6.2 19.34 5.36 19.86C4.5 20.4 4 21.3 4 22.3V33.32C4 35.22 5.06 36.94 6.76 37.8L18.42 43.64C18.82 43.84 19.26 43.94 19.7 43.94C20.22 43.94 20.74 43.8 21.2 43.52C22.06 43 22.56 42.08 22.56 41.08V30.06C22.58 28.14 21.52 26.42 19.82 25.58Z" fill="#4567F7"/>
<path id="Vector_3" opacity="0.4" d="M42.6404 19.8603C41.7804 19.3403 40.7404 19.2803 39.8604 19.7403L28.2004 25.5803C26.5004 26.4403 25.4404 28.1403 25.4404 30.0603V41.0803C25.4404 42.0803 25.9404 43.0003 26.8004 43.5203C27.2604 43.8003 27.7804 43.9403 28.3004 43.9403C28.7404 43.9403 29.1804 43.8403 29.5804 43.6403L41.2404 37.8003C42.9404 36.9403 44.0004 35.2403 44.0004 33.3203V22.3003C44.0004 21.3003 43.5004 20.4003 42.6404 19.8603Z" fill="#4567F7"/>
</g>
</g>
</svg>
