<svg width="48" height="48" viewBox="0 0 48 48" fill="none" xmlns="http://www.w3.org/2000/svg">
<g id="vuesax/bulk/people">
<g id="people">
<path id="Vector" opacity="0.4" d="M35.0601 15.54C34.9201 15.52 34.7801 15.52 34.6401 15.54C31.5401 15.44 29.0801 12.9 29.0801 9.78C29.0801 6.6 31.6601 4 34.8601 4C38.0401 4 40.6401 6.58 40.6401 9.78C40.6201 12.9 38.1601 15.44 35.0601 15.54Z" fill="#4567F7"/>
<path id="Vector_2" opacity="0.4" d="M41.5802 29.3998C39.3402 30.8998 36.2002 31.4598 33.3002 31.0798C34.0602 29.4398 34.4602 27.6198 34.4802 25.6998C34.4802 23.6998 34.0402 21.7998 33.2002 20.1398C36.1602 19.7398 39.3002 20.2998 41.5602 21.7998C44.7202 23.8798 44.7202 27.2998 41.5802 29.3998Z" fill="#4567F7"/>
<path id="Vector_3" opacity="0.4" d="M12.8798 15.54C13.0198 15.52 13.1598 15.52 13.2998 15.54C16.3998 15.44 18.8598 12.9 18.8598 9.78C18.8598 6.6 16.2798 4 13.0798 4C9.8998 4 7.2998 6.58 7.2998 9.78C7.3198 12.9 9.7798 15.44 12.8798 15.54Z" fill="#4567F7"/>
<path id="Vector_4" opacity="0.4" d="M13.1002 25.7002C13.1002 27.6402 13.5202 29.4802 14.2802 31.1402C11.4602 31.4402 8.52023 30.8402 6.36023 29.4202C3.20023 27.3202 3.20023 23.9002 6.36023 21.8002C8.50023 20.3602 11.5202 19.7802 14.3602 20.1002C13.5402 21.7802 13.1002 23.6802 13.1002 25.7002Z" fill="#4567F7"/>
<path id="Vector_5" d="M24.2396 31.74C24.0796 31.72 23.8996 31.72 23.7196 31.74C20.0396 31.62 17.0996 28.6 17.0996 24.88C17.0996 21.08 20.1596 18 23.9796 18C27.7796 18 30.8596 21.08 30.8596 24.88C30.8596 28.6 27.9396 31.62 24.2396 31.74Z" fill="#4567F7"/>
<path id="Vector_6" d="M17.7396 35.8803C14.7196 37.9003 14.7196 41.2203 17.7396 43.2203C21.1796 45.5203 26.8196 45.5203 30.2596 43.2203C33.2796 41.2003 33.2796 37.8803 30.2596 35.8803C26.8396 33.5803 21.1996 33.5803 17.7396 35.8803Z" fill="#4567F7"/>
</g>
</g>
</svg>
