<svg width="48" height="48" viewBox="0 0 48 48" fill="none" xmlns="http://www.w3.org/2000/svg">
<g id="User Arrows">
<path id="Vector" d="M12 33C10.6155 33 9.26216 32.5895 8.11101 31.8203C6.95987 31.0511 6.06266 29.9579 5.53285 28.6788C5.00303 27.3997 4.86441 25.9922 5.13451 24.6344C5.4046 23.2765 6.07129 22.0292 7.05026 21.0503C8.02922 20.0713 9.2765 19.4046 10.6344 19.1345C11.9922 18.8644 13.3997 19.003 14.6788 19.5328C15.9579 20.0627 17.0511 20.9599 17.8203 22.111C18.5895 23.2622 19 24.6155 19 26C18.9978 27.8558 18.2595 29.635 16.9473 30.9473C15.635 32.2595 13.8558 32.9978 12 33Z" fill="#4567F7"/>
<path id="Vector_2" d="M17.2805 30.5436C16.6325 31.313 15.8241 31.9315 14.9119 32.3558C13.9998 32.7801 13.006 33 12 33C10.994 33 10.0002 32.7801 9.08805 32.3558C8.17593 31.9315 7.36755 31.313 6.71948 30.5436C5.27946 31.4364 4.09055 32.6812 3.26484 34.1607C2.43913 35.6402 2.00384 37.3057 2 39C2 39.5304 2.21071 40.0391 2.58579 40.4142C2.96086 40.7893 3.46957 41 4 41H20C20.5304 41 21.0391 40.7893 21.4142 40.4142C21.7893 40.0391 22 39.5304 22 39C21.9962 37.3057 21.5609 35.6402 20.7352 34.1607C19.9095 32.6812 18.7205 31.4364 17.2805 30.5436ZM36 33C34.6155 33 33.2622 32.5895 32.111 31.8203C30.9599 31.0511 30.0627 29.9579 29.5328 28.6788C29.003 27.3997 28.8644 25.9922 29.1345 24.6344C29.4046 23.2765 30.0713 22.0292 31.0503 21.0503C32.0292 20.0713 33.2765 19.4046 34.6344 19.1345C35.9922 18.8644 37.3997 19.003 38.6788 19.5328C39.9579 20.0627 41.0511 20.9599 41.8203 22.111C42.5895 23.2622 43 24.6155 43 26C42.9978 27.8558 42.2595 29.635 40.9473 30.9473C39.635 32.2595 37.8558 32.9978 36 33Z" fill="#2452D6"/>
<path id="Vector_3" d="M41.2805 30.5439C40.6325 31.3134 39.8241 31.9319 38.9119 32.3562C37.9998 32.7805 37.006 33.0003 36 33.0003C34.994 33.0003 34.0002 32.7805 33.0881 32.3562C32.1759 31.9319 31.3675 31.3134 30.7195 30.5439C29.2795 31.4367 28.0905 32.6816 27.2648 34.1611C26.4391 35.6406 26.0038 37.306 26 39.0004C26 39.5308 26.2107 40.0395 26.5858 40.4146C26.9609 40.7897 27.4696 41.0004 28 41.0004H44C44.5304 41.0004 45.0391 40.7897 45.4142 40.4146C45.7893 40.0395 46 39.5308 46 39.0004C45.9962 37.306 45.5609 35.6406 44.7352 34.1611C43.9095 32.6816 42.7205 31.4367 41.2805 30.5439Z" fill="#4567F7"/>
<path id="Vector_4" d="M34.4139 11.5857L30.4139 7.58567C30.0378 7.21625 29.5309 7.01033 29.0037 7.01272C28.4765 7.01511 27.9715 7.22561 27.5987 7.59842C27.2259 7.97123 27.0154 8.47619 27.013 9.00342C27.0106 9.53065 27.2165 10.0375 27.5859 10.4137L28.1719 10.9997H19.8281L20.4141 10.4137C20.7852 10.0378 20.9926 9.53043 20.9909 9.00223C20.9892 8.47404 20.7786 7.96796 20.4051 7.59448C20.0316 7.221 19.5256 7.01045 18.9974 7.0088C18.4692 7.00715 17.9618 7.21453 17.5859 7.58567L13.5859 11.5857C13.4002 11.7713 13.2528 11.9918 13.1523 12.2344C13.0517 12.477 13 12.7371 13 12.9997C13 13.2624 13.0517 13.5224 13.1523 13.7651C13.2528 14.0077 13.4002 14.2281 13.5859 14.4138L17.5859 18.4138C17.9618 18.7849 18.4692 18.9923 18.9974 18.9906C19.5256 18.9889 20.0317 18.7784 20.4051 18.4049C20.7786 18.0314 20.9892 17.5253 20.9908 16.9971C20.9925 16.4689 20.7851 15.9615 20.4139 15.5857L19.8279 14.9997H28.1717L27.5857 15.5857C27.2107 15.9607 27 16.4694 27 16.9998C27.0001 17.5301 27.2108 18.0388 27.5858 18.4138C27.9609 18.7888 28.4695 18.9995 28.9999 18.9995C29.5303 18.9994 30.0389 18.7887 30.4139 18.4137L34.4139 14.4137C34.5997 14.228 34.747 14.0076 34.8476 13.765C34.9481 13.5223 34.9998 13.2623 34.9998 12.9997C34.9998 12.737 34.9481 12.477 34.8476 12.2344C34.747 11.9918 34.5997 11.7713 34.4139 11.5857Z" fill="#4567F7"/>
</g>
</svg>
